<svg width="1046" height="238" viewBox="0 0 1046 238" fill="none" xmlns="http://www.w3.org/2000/svg">
<path d="M22.4595 178C19.6521 178 17.0573 177.319 14.6752 175.958C12.3783 174.597 10.5492 172.768 9.18798 170.471C7.8268 168.089 7.14621 165.494 7.14621 162.687V101.433C7.14621 98.6261 7.8268 96.0738 9.18798 93.7768C10.5492 91.3948 12.3783 89.5232 14.6752 88.162C17.0573 86.8008 19.6521 86.1202 22.4595 86.1202H83.7127C86.5201 86.1202 89.0724 86.8008 91.3694 88.162C93.7514 89.5232 95.6231 91.3948 96.9842 93.7768C98.3454 96.0738 99.026 98.6261 99.026 101.433V105.134H88.6895V101.433C88.6895 100.072 88.1791 98.9238 87.1582 97.988C86.2224 96.9671 85.0739 96.4567 83.7127 96.4567H22.4595C21.0983 96.4567 19.9073 96.9671 18.8864 97.988C17.9506 98.9238 17.4827 100.072 17.4827 101.433V162.687C17.4827 164.048 17.9506 165.239 18.8864 166.26C19.9073 167.196 21.0983 167.664 22.4595 167.664H83.7127C85.0739 167.664 86.2224 167.196 87.1582 166.26C88.1791 165.239 88.6895 164.048 88.6895 162.687V139.972H65.9748V129.508H99.026V162.687C99.026 165.494 98.3454 168.089 96.9842 170.471C95.6231 172.768 93.7514 174.597 91.3694 175.958C89.0724 177.319 86.5201 178 83.7127 178H22.4595ZM129.28 178C126.472 178 123.878 177.319 121.495 175.958C119.198 174.512 117.327 172.64 115.881 170.343C114.519 167.961 113.839 165.367 113.839 162.559V135.761H178.665V119.427C178.665 118.065 178.155 116.917 177.134 115.981C176.198 114.96 175.049 114.45 173.688 114.45H113.839V103.986H173.688C176.581 103.986 179.176 104.709 181.473 106.155C183.855 107.516 185.726 109.388 187.087 111.77C188.534 114.067 189.257 116.619 189.257 119.427V178H129.28ZM129.28 167.536H178.665V146.225H124.303V162.559C124.303 163.92 124.771 165.111 125.707 166.132C126.728 167.068 127.919 167.536 129.28 167.536ZM217.914 178C215.107 178 212.512 177.319 210.13 175.958C207.833 174.512 205.962 172.64 204.515 170.343C203.154 167.961 202.474 165.367 202.474 162.559V79.7397H212.938V162.559C212.938 163.92 213.406 165.111 214.341 166.132C215.362 167.068 216.553 167.536 217.914 167.536H230.42V178H217.914ZM255.701 178C252.894 178 250.299 177.319 247.917 175.958C245.62 174.512 243.748 172.64 242.302 170.343C240.941 167.961 240.26 165.367 240.26 162.559V119.427C240.26 116.619 240.941 114.067 242.302 111.77C243.748 109.388 245.62 107.516 247.917 106.155C250.299 104.709 252.894 103.986 255.701 103.986H300.11C303.002 103.986 305.597 104.709 307.894 106.155C310.276 107.516 312.148 109.388 313.509 111.77C314.955 114.067 315.678 116.619 315.678 119.427V146.225H250.724V162.559C250.724 163.92 251.192 165.111 252.128 166.132C253.149 167.068 254.34 167.536 255.701 167.536H315.678V178H255.701ZM250.724 135.761H305.087V119.427C305.087 118.065 304.576 116.917 303.555 115.981C302.619 114.96 301.471 114.45 300.11 114.45H255.701C254.34 114.45 253.149 114.96 252.128 115.981C251.192 116.917 250.724 118.065 250.724 119.427V135.761ZM329.396 178V119.427C329.396 116.619 330.077 114.067 331.438 111.77C332.885 109.388 334.756 107.516 337.053 106.155C339.435 104.709 342.03 103.986 344.837 103.986H386.439V114.45H344.837C343.476 114.45 342.285 114.96 341.264 115.981C340.328 116.917 339.861 118.065 339.861 119.427V178H329.396ZM410.664 178C407.856 178 405.261 177.319 402.879 175.958C400.582 174.512 398.711 172.64 397.264 170.343C395.903 167.961 395.223 165.367 395.223 162.559V119.427C395.223 116.619 395.903 114.067 397.264 111.77C398.711 109.388 400.582 107.516 402.879 106.155C405.261 104.709 407.856 103.986 410.664 103.986H455.072C457.965 103.986 460.559 104.709 462.856 106.155C465.239 107.516 467.11 109.388 468.471 111.77C469.918 114.067 470.641 116.619 470.641 119.427V162.559C470.641 165.367 469.918 167.961 468.471 170.343C467.11 172.64 465.239 174.512 462.856 175.958C460.559 177.319 457.965 178 455.072 178H410.664ZM410.664 167.536H455.072C456.433 167.536 457.582 167.068 458.518 166.132C459.539 165.111 460.049 163.92 460.049 162.559V119.427C460.049 118.065 459.539 116.917 458.518 115.981C457.582 114.96 456.433 114.45 455.072 114.45H410.664C409.302 114.45 408.111 114.96 407.091 115.981C406.155 116.917 405.687 118.065 405.687 119.427V162.559C405.687 163.92 406.155 165.111 407.091 166.132C408.111 167.068 409.302 167.536 410.664 167.536ZM497.803 178C494.995 178 492.401 177.319 490.019 175.958C487.722 174.512 485.85 172.64 484.404 170.343C483.043 167.961 482.362 165.367 482.362 162.559V119.427C482.362 116.619 483.043 114.067 484.404 111.77C485.85 109.388 487.722 107.516 490.019 106.155C492.401 104.709 494.995 103.986 497.803 103.986H542.211C545.104 103.986 547.699 104.709 549.996 106.155C552.378 107.516 554.249 109.388 555.611 111.77C557.057 114.067 557.78 116.619 557.78 119.427V162.559C557.78 165.367 557.057 167.961 555.611 170.343C554.249 172.64 552.378 174.512 549.996 175.958C547.699 177.319 545.104 178 542.211 178H497.803ZM497.803 167.536H542.211C543.573 167.536 544.721 167.068 545.657 166.132C546.678 165.111 547.188 163.92 547.188 162.559V119.427C547.188 118.065 546.678 116.917 545.657 115.981C544.721 114.96 543.573 114.45 542.211 114.45H497.803C496.442 114.45 495.251 114.96 494.23 115.981C493.294 116.917 492.826 118.065 492.826 119.427V162.559C492.826 163.92 493.294 165.111 494.23 166.132C495.251 167.068 496.442 167.536 497.803 167.536ZM584.699 178C581.891 178 579.297 177.319 576.915 175.958C574.618 174.512 572.746 172.64 571.3 170.343C569.939 167.961 569.258 165.367 569.258 162.559V103.986H579.722V162.559C579.722 163.92 580.19 165.111 581.126 166.132C582.147 167.068 583.338 167.536 584.699 167.536H629.107C630.469 167.536 631.66 167.068 632.681 166.132C633.701 165.111 634.212 163.92 634.212 162.559V103.986H644.676V162.559C644.676 165.367 643.953 167.961 642.507 170.343C641.145 172.64 639.274 174.512 636.892 175.958C634.595 177.319 632 178 629.107 178H584.699ZM674.577 178C671.769 178 669.175 177.319 666.793 175.958C664.496 174.512 662.624 172.64 661.178 170.343C659.816 167.961 659.136 165.367 659.136 162.559V79.7397H669.6V162.559C669.6 163.92 670.068 165.111 671.004 166.132C672.025 167.068 673.216 167.536 674.577 167.536H687.083V178H674.577ZM712.364 178C709.556 178 706.961 177.319 704.579 175.958C702.282 174.512 700.411 172.64 698.964 170.343C697.603 167.961 696.923 165.367 696.923 162.559V119.427C696.923 116.619 697.603 114.067 698.964 111.77C700.411 109.388 702.282 107.516 704.579 106.155C706.961 104.709 709.556 103.986 712.364 103.986H756.772C759.665 103.986 762.259 104.709 764.556 106.155C766.938 107.516 768.81 109.388 770.171 111.77C771.618 114.067 772.341 116.619 772.341 119.427V146.225H707.387V162.559C707.387 163.92 707.855 165.111 708.79 166.132C709.811 167.068 711.002 167.536 712.364 167.536H772.341V178H712.364ZM707.387 135.761H761.749V119.427C761.749 118.065 761.239 116.917 760.218 115.981C759.282 114.96 758.133 114.45 756.772 114.45H712.364C711.002 114.45 709.811 114.96 708.79 115.981C707.855 116.917 707.387 118.065 707.387 119.427V135.761Z" fill="white"/>
<rect x="799" y="31" width="247" height="163" fill="#D9D9D9"/>
<path d="M937.478 175.933V57H949.388V175.933H937.478ZM814.543 175.933L859.633 57H873.244L918.334 175.933H905.402L866.438 69.9312L827.134 175.933L814.543 175.933Z" fill="url(#paint0_linear_33_143)"/>
<path d="M969.856 169.489L969.857 177.809L1035.01 177.801L1035.01 169.481L969.856 169.489Z" fill="#034460"/>
<defs>
<linearGradient id="paint0_linear_33_143" x1="976.674" y1="176.751" x2="873.863" y2="198.604" gradientUnits="userSpaceOnUse">
<stop offset="0.435" stop-color="#034460"/>
<stop offset="1" stop-color="#61DAFB"/>
</linearGradient>
</defs>
</svg>
